<!-- <svg width="530" height="98" viewBox="0 0 530 98" fill="none" xmlns="http://www.w3.org/2000/svg"> -->
<svg width="170" height="170" viewBox="0 0 530 98" fill="none" xmlns="http://www.w3.org/2000/svg">
<circle cx="49" cy="49" r="49" fill="#FF0000"/>
<path fill-rule="evenodd" clip-rule="evenodd" d="M23 64.0714H75V28.7857H23V64.0714Z" stroke="#333333" stroke-width="3" stroke-linecap="round" stroke-linejoin="round"/>
<path fill-rule="evenodd" clip-rule="evenodd" d="M43.4286 73.3571H54.5714V64.0714H43.4286V73.3571Z" stroke="#333333" stroke-width="3" stroke-linecap="round" stroke-linejoin="round"/>
<path fill-rule="evenodd" clip-rule="evenodd" d="M43.4286 73.3571H54.5714V64.0714H43.4286V73.3571Z" stroke="#333333" stroke-width="3" stroke-linecap="round" stroke-linejoin="round"/>
<path d="M32.2857 73.3572H63.8571" stroke="#333333" stroke-width="3" stroke-linecap="round" stroke-linejoin="round"/>
<path d="M23 57.0146H73.1429" stroke="#333333" stroke-width="3" stroke-linecap="round" stroke-linejoin="round"/>
<path d="M60.1429 38.0714L65.7143 39.9286L50.8571 47.3571L47.1429 41.7857L32.2857 49.2143" stroke="white" stroke-width="3" stroke-linecap="round" stroke-linejoin="round"/>
<path d="M63.8571 45.5L65.7143 39.9286" stroke="white" stroke-width="3" stroke-linecap="round" stroke-linejoin="round"/>
<path fill-rule="evenodd" clip-rule="evenodd" d="M513.143 30.4286C513.143 34.531 516.469 37.8571 520.571 37.8571C524.674 37.8571 528 34.531 528 30.4286C528 26.3261 524.674 23 520.571 23C516.469 23 513.143 26.3261 513.143 30.4286Z" stroke="#333333" stroke-width="3" stroke-linecap="round" stroke-linejoin="round"/>
<path fill-rule="evenodd" clip-rule="evenodd" d="M513.143 67.5715C513.143 71.6739 516.469 75 520.571 75C524.674 75 528 71.6739 528 67.5715C528 63.469 524.674 60.1429 520.571 60.1429C516.469 60.1429 513.143 63.469 513.143 67.5715Z" stroke="#333333" stroke-width="3" stroke-linecap="round" stroke-linejoin="round"/>
<path fill-rule="evenodd" clip-rule="evenodd" d="M476 49C476 54.642 480.574 59.2143 486.214 59.2143C491.854 59.2143 496.429 54.642 496.429 49C496.429 43.358 491.854 38.7857 486.214 38.7857C480.574 38.7857 476 43.358 476 49Z" stroke="#333333" stroke-width="3" stroke-linecap="round" stroke-linejoin="round"/>
<path d="M481.571 49C481.571 46.4408 483.655 44.3571 486.214 44.3571" stroke="white" stroke-width="3" stroke-linecap="round" stroke-linejoin="round"/>
<path d="M495.5 53.6429L514.079 63.9649" stroke="#333333" stroke-width="3" stroke-linecap="round" stroke-linejoin="round"/>
<path d="M514.079 34.0359L495.5 44.3579" stroke="#333333" stroke-width="3" stroke-linecap="round" stroke-linejoin="round"/>
</svg>
