<svg xmlns="http://www.w3.org/2000/svg" xmlns:xlink="http://www.w3.org/1999/xlink" width="446.565" height="451" viewBox="0 0 446.565 451"><defs><linearGradient id="a" x1="0.026" y1="0.469" x2="0.955" y2="0.5" gradientUnits="objectBoundingBox"><stop offset="0" stop-color="#ff0000"/><stop offset="0.449" stop-color="#ff0000"/><stop offset="1" stop-color="#ff0000"/></linearGradient></defs><g transform="translate(-39 485)"><path d="M39-259.5V-34H162v-82.5l43.1.3c26.1.2,43,0,42.8-.6-.2-.5-5.3-9.5-11.4-20.1l-11-19.1h-23c-33.4,0-46.2-2-63.1-9.9-12.1-5.7-19.8-11.3-30.4-22.1a98.5,98.5,0,0,1-27.5-51.9c-2.4-11.6-1.6-34.2,1.5-45.6,10-36.7,39.2-64.5,78-74.2,5.7-1.5,17.4-1.7,94.5-2,67.9-.3,89-.1,92.5.8,8.2,2.3,15,11.6,15,20.6,0,4.5-4.6,12.8-8.8,15.6a26.27,26.27,0,0,1-8.2,3.6c-2.9.7-34.9,1.1-89,1.1-93.1,0-89.1-.2-102.5,6.4-29.2,14.4-41.9,51.7-27.4,80.9q11.4,23.1,35.9,31.9c6.3,2.2,7.8,2.3,46.3,2.8l39.9.5,47.1,81.7L343.5-34h70.8c38.9,0,70.7-.2,70.7-.3,0-.2-22.1-38.6-49-85.2-27-46.7-49-85-49-85.1a56.76,56.76,0,0,1,5.7-2.4c31.7-11.9,62.2-39.1,77.4-69.1a143.471,143.471,0,0,0-26.6-166.3,142.8,142.8,0,0,0-89.2-41.5c-7.5-.7-67-1.1-163.5-1.1H39ZM367.5-440.7c47.5,13,79.5,56.2,77.2,104.2a102.068,102.068,0,0,1-29.6,67.3,97,97,0,0,1-29.2,20.7c-16.1,7.6-30.9,10.4-54.1,10.5-6,0-10.8.2-10.8.4,0,.3,20.8,36.4,46.1,80.3,25.4,43.9,46.4,80.6,46.7,81.5.4,1.7-1.2,1.8-22.9,1.8H367.5l-47.2-81.8-47.2-81.7-47.8-.5c-32.8-.4-48.6-.9-50.4-1.7A24.367,24.367,0,0,1,164-250.1c-2.4-4.7-2.6-12.8-.4-17.5,2.2-4.6,8.5-10,13.1-11.3,2.5-.7,32-1.1,88.8-1.1,94.3,0,90.3.3,104.4-6.7,9.9-4.8,21.2-16,26.3-25.8,5.5-10.7,7.2-17.5,7.1-29-.2-25.9-15.2-47.3-40.1-57.3l-6.7-2.7h-196L150-398.8c-24.5,6.2-44.3,16.5-62.6,32.4-4,3.5-7.4,6.4-7.6,6.4s-.2-18.9,0-42l.2-42.1,138.8.3,138.7.3ZM86.4-152.6c8.5,7.5,20.1,15.6,27.9,19.7l6.7,3.4V-74H80l-.2-42c-.2-23.1-.1-42,.1-42A76.992,76.992,0,0,1,86.4-152.6Z" fill="url(#a)"/></g></svg>