<svg width="40" height="40" viewBox="0 0 84 84" fill="none" xmlns="http://www.w3.org/2000/svg">
<circle cx="42" cy="42" r="42" fill="#FF0000"/>
<path d="M65.9361 35.0804C66.7164 37.5589 67.1391 40.1957 67.1391 42.9311C67.1391 57.3289 55.4674 69.0006 41.0695 69.0006C26.6717 69.0006 15 57.3289 15 42.9311C15 28.5333 26.6717 16.8616 41.0695 16.8616C43.6243 16.8616 46.0916 17.2303 48.423 17.9137" stroke="#333333" stroke-width="3" stroke-linecap="round" stroke-linejoin="round"/>
<path d="M52.0576 40.9004C52.1787 41.5596 52.242 42.2374 52.242 42.9319C52.242 49.1011 47.2403 54.1046 41.0693 54.1046C34.9002 54.1046 29.8967 49.1011 29.8967 42.9319C29.8967 36.7609 34.9002 31.7593 41.0693 31.7593C41.6913 31.7593 42.3002 31.8096 42.8942 31.9064" stroke="#333333" stroke-width="3" stroke-linecap="round" stroke-linejoin="round"/>
<path d="M41.0695 42.9316L67.139 16.8621" stroke="white" stroke-width="3" stroke-linecap="round" stroke-linejoin="round"/>
<path fill-rule="evenodd" clip-rule="evenodd" d="M61.5527 22.4484V15L54.1043 22.4484V29.8969H61.5527L69.0012 22.4484H61.5527Z" stroke="white" stroke-width="3" stroke-linecap="round" stroke-linejoin="round"/>
</svg>
